HIERARCHY
ROOT Hips
{
	OFFSET -0.001795 -0.223333 0.028219
	CHANNELS 6 Xposition Yposition Zposition Zrotation Yrotation Xrotation 
	JOINT LeftUpLeg
	{
		OFFSET 0.069520 -0.091406 -0.006815
		CHANNELS 3 Zrotation Yrotation Xrotation
		JOINT LeftLeg
		{
			OFFSET 0.034277 -0.375199 -0.004496
			CHANNELS 3 Zrotation Yrotation Xrotation
			JOINT LeftFoot
			{
				OFFSET -0.013596 -0.397961 -0.043693
				CHANNELS 3 Zrotation Yrotation Xrotation
				JOINT LeftToe
				{
					OFFSET 0.026358 -0.055791 0.119288
					CHANNELS 3 Zrotation Yrotation Xrotation
					End Site
					{
						OFFSET 0.000000 0.000000 0.000000
					}
				}
			}
		}
	}
	JOINT RightUpLeg
	{
		OFFSET -0.067670 -0.090522 -0.004320
		CHANNELS 3 Zrotation Yrotation Xrotation
		JOINT RightLeg
		{
			OFFSET -0.038290 -0.382569 -0.008850
			CHANNELS 3 Zrotation Yrotation Xrotation
			JOINT RightFoot
			{
				OFFSET 0.015774 -0.398415 -0.042312
				CHANNELS 3 Zrotation Yrotation Xrotation
				JOINT RightToe
				{
					OFFSET -0.025372 -0.048144 0.123348
					CHANNELS 3 Zrotation Yrotation Xrotation
					End Site
					{
						OFFSET 0.000000 0.000000 0.000000
					}
				}
			}
		}
	}
	JOINT Spine
	{
		OFFSET -0.002533 0.108963 -0.026696
		CHANNELS 3 Zrotation Yrotation Xrotation
		JOINT Spine1
		{
			OFFSET 0.005487 0.135180 0.001092
			CHANNELS 3 Zrotation Yrotation Xrotation
			JOINT Spine2
			{
				OFFSET 0.001457 0.052922 0.025425
				CHANNELS 3 Zrotation Yrotation Xrotation
				JOINT Neck
				{
					OFFSET -0.002778 0.213870 -0.042857
					CHANNELS 3 Zrotation Yrotation Xrotation
					JOINT Head
					{
						OFFSET 0.005152 0.064970 0.051349
						CHANNELS 3 Zrotation Yrotation Xrotation
						End Site
						{
							OFFSET 0.000000 0.000000 0.000000
						}
					}
				}
				JOINT LeftShoulder
				{
					OFFSET 0.078845 0.121749 -0.034090
					CHANNELS 3 Zrotation Yrotation Xrotation
					JOINT LeftArm
					{
						OFFSET 0.090977 0.030469 -0.008868
						CHANNELS 3 Zrotation Yrotation Xrotation
						JOINT LeftForeArm
						{
							OFFSET 0.259612 -0.012772 -0.027456
							CHANNELS 3 Zrotation Yrotation Xrotation
							JOINT LeftHand
							{
								OFFSET 0.249234 0.008986 -0.001171
								CHANNELS 3 Zrotation Yrotation Xrotation
								End Site
								{
									OFFSET 0.000000 0.000000 0.000000
								}
							}
						}
					}
				}
				JOINT RightShoulder
				{
					OFFSET -0.081759 0.118833 -0.038615
					CHANNELS 3 Zrotation Yrotation Xrotation
					JOINT RightArm
					{
						OFFSET -0.096012 0.032551 -0.009143
						CHANNELS 3 Zrotation Yrotation Xrotation
						JOINT RightForeArm
						{
							OFFSET -0.253742 -0.013329 -0.021401
							CHANNELS 3 Zrotation Yrotation Xrotation
							JOINT RightHand
							{
								OFFSET -0.255298 0.007772 -0.005559
								CHANNELS 3 Zrotation Yrotation Xrotation
								End Site
								{
									OFFSET 0.000000 0.000000 0.000000
								}
							}
						}
					}
				}
			}
		}
	}
}
MOTION
Frames: 17
Frame Time: 0.050000
0.584799 1.061904 2.681266 3.337189 31.961216 -2.953699 6.238741 -1.174559 -12.223008 -19.119238 0.503087 33.478740 13.223815 25.496400 37.490671 0.000000 0.000000 0.000000 -2.497417 0.229568 -12.597865 3.429810 -3.744408 26.138406 -3.946133 -8.689070 31.199932 0.000000 0.000000 0.000000 0.483163 -7.094613 42.576628 -10.466502 -4.541722 -71.898500 7.702458 4.889221 54.664497 14.729039 -4.022446 -32.700173 0.000000 0.000000 0.000000 -26.572600 -12.917791 0.873141 -17.935258 -10.686827 -2.574983 17.774083 -25.872833 -3.964022 0.000000 0.000000 0.000000 24.566202 -5.742010 2.424090 19.494558 13.213209 -5.322006 -17.576453 19.322678 -1.378573 0.000000 0.000000 0.000000 
0.589588 1.109782 2.690159 4.036686 26.123206 -3.852362 8.526309 -1.875122 -20.893469 -33.825182 7.634646 50.168721 22.917341 32.837858 38.016606 0.000000 0.000000 0.000000 -2.096887 0.453839 -11.284177 2.841395 -2.459579 24.275067 -2.781737 -8.943984 37.670635 0.000000 0.000000 0.000000 0.674002 -6.118097 42.477808 -12.979952 -2.973524 -69.823706 6.751096 4.227254 50.740065 14.141756 -7.612176 -20.756315 0.000000 0.000000 0.000000 -24.141319 -8.411016 0.146892 -16.833600 -9.171823 -2.824440 22.278685 -28.187316 -5.581674 0.000000 0.000000 0.000000 24.521918 -7.261033 0.246920 15.225311 6.978083 -4.553863 -17.128361 19.039383 -1.586126 0.000000 0.000000 0.000000 
0.590593 1.132500 2.695092 5.410863 23.428083 -5.067081 11.090025 -2.682552 -31.210408 -49.406152 22.674631 64.385963 33.291092 41.313623 37.654085 0.000000 0.000000 0.000000 -4.590884 0.125568 -10.220601 4.973620 -3.156789 25.354262 -3.034094 -10.343180 40.154929 0.000000 0.000000 0.000000 -2.060587 -5.375159 46.311884 -12.337591 -3.532499 -76.167895 6.903356 3.135767 54.950776 13.297717 -7.558334 -21.669170 0.000000 0.000000 0.000000 -22.925208 -7.100006 1.145108 -12.132226 -9.620664 -2.643871 26.975432 -25.983008 -6.503426 0.000000 0.000000 0.000000 23.679730 -8.268051 -0.848161 11.868992 2.926011 -3.966219 -17.254137 18.397170 -1.787620 0.000000 0.000000 0.000000 
0.591251 1.128123 2.699647 6.150386 17.874269 -9.107715 16.386050 -1.596220 -40.626422 -68.850984 44.035517 64.211522 46.451767 48.669442 44.591620 0.000000 0.000000 0.000000 -5.563622 0.073990 -8.026846 7.116443 -3.506617 26.788875 -1.796177 -10.442358 41.259230 0.000000 0.000000 0.000000 -5.292650 -3.543390 50.643502 -7.498496 -1.724522 -80.272548 4.766866 5.728016 58.339901 10.756884 -6.095141 -19.238525 0.000000 0.000000 0.000000 -21.961965 -7.195046 2.023281 -7.484244 -6.725356 -1.985818 31.101555 -21.695130 -6.827076 0.000000 0.000000 0.000000 24.288390 -9.049497 -0.766878 8.250284 3.065044 -3.242688 -21.787290 17.917995 -2.549451 0.000000 0.000000 0.000000 
0.593115 1.101943 2.704887 6.847739 11.673847 -14.172062 25.531224 3.295325 -54.600710 -98.799879 60.083611 46.569982 52.845749 49.334300 51.619036 0.000000 0.000000 0.000000 -6.651824 -0.008723 -5.745239 8.985454 -3.692699 29.579265 0.498002 -8.248251 35.644331 0.000000 0.000000 0.000000 -6.944824 -1.550818 53.874863 -4.067316 0.285316 -82.330064 3.024852 8.885970 62.460114 15.002887 -10.140332 -21.269126 0.000000 0.000000 0.000000 -21.059361 -7.895627 3.248079 -1.964417 -3.488998 -0.695716 36.911452 -19.113156 -8.209271 0.000000 0.000000 0.000000 27.812742 -9.467261 0.174326 1.092727 3.350974 -1.148772 -27.383881 19.162515 -4.515244 0.000000 0.000000 0.000000 
0.597027 1.061806 2.711355 7.919712 5.266184 -20.498219 29.332249 9.716267 -65.080162 -116.695528 62.568947 32.631016 63.380785 51.628692 62.486187 0.000000 0.000000 0.000000 -8.138748 -0.123366 -2.693268 10.056423 -3.567164 36.335606 0.151348 -8.972556 29.843884 0.000000 0.000000 0.000000 -6.785314 0.110770 55.144213 -1.844669 1.675142 -83.858848 2.023921 11.870659 70.373271 14.809831 -10.046316 -24.398615 0.000000 0.000000 0.000000 -24.518146 -6.883380 4.433812 6.455523 -2.507755 1.959436 40.521798 -12.564190 -8.315873 0.000000 0.000000 0.000000 35.379007 -7.928547 4.507688 -8.890778 3.277205 2.636191 -34.769472 12.213090 -5.980804 0.000000 0.000000 0.000000 
0.602026 1.019692 2.719019 8.955036 -0.839635 -26.684189 24.909740 12.489972 -74.161074 -90.509256 66.361676 57.872077 55.593680 51.047990 57.450731 0.000000 0.000000 0.000000 -10.041031 -0.131900 0.947453 10.114583 -2.358687 41.756280 0.793893 -6.936608 20.896919 0.000000 0.000000 0.000000 -2.749549 -0.136765 53.630495 -8.275818 0.366687 -91.047550 6.531639 8.063406 87.717046 17.908381 -13.825692 -35.927436 0.000000 0.000000 0.000000 -24.679047 -5.615498 8.654577 9.699458 -4.495251 3.602417 44.061926 -4.570591 -8.599771 0.000000 0.000000 0.000000 34.423481 -8.553941 7.423417 -13.093180 2.933945 5.247201 -38.941539 6.058600 -7.546917 0.000000 0.000000 0.000000 
0.607230 0.988828 2.727167 10.977023 -6.111610 -34.160688 19.607693 12.946520 -76.357985 -45.018147 55.759312 97.187581 35.393745 44.797207 39.430690 0.000000 0.000000 0.000000 -12.146840 0.169888 6.508065 9.298454 -0.397260 44.738068 0.100342 -6.184927 12.865533 0.000000 0.000000 0.000000 3.034898 -1.106811 49.885400 -152.838334 30.572087 -92.804016 139.725138 -40.043519 -79.997639 -0.041150 -8.007335 -42.726243 0.000000 0.000000 0.000000 -22.165708 13.449480 76.728539 19.815845 -14.519429 -4.120635 43.503329 47.146435 14.721626 0.000000 0.000000 0.000000 1.216861 2.039689 -42.987186 -7.415937 -11.541703 2.339561 -16.837673 39.571853 -12.932920 0.000000 0.000000 0.000000 
0.610625 0.971297 2.734885 14.021900 -10.093240 -40.622900 16.416406 13.307749 -73.924581 -25.984127 36.714047 104.253289 20.793157 33.862548 28.018096 0.000000 0.000000 0.000000 -16.137253 1.180281 11.188460 9.253688 0.890616 45.612372 -1.690159 -7.168610 5.852871 0.000000 0.000000 0.000000 10.361629 -2.165116 41.441785 56.435147 62.878154 173.923720 72.336836 3.177293 -115.812204 7.759766 20.142755 -20.224136 0.000000 0.000000 0.000000 -14.363575 2.045214 25.002462 -7.921075 -11.748749 0.394750 59.081188 -7.689239 2.356417 0.000000 0.000000 0.000000 -2.826388 -18.986457 15.936595 -1.720082 7.429771 0.214114 -39.108737 15.600050 -12.297088 0.000000 0.000000 0.000000 
0.611597 0.960096 2.740621 16.662205 -12.300453 -47.517036 15.401355 12.981756 -66.726539 -17.543582 22.443590 93.454584 13.422382 24.309335 29.001936 0.000000 0.000000 0.000000 -18.866852 2.712896 16.608768 9.953941 1.225190 45.618395 -5.279658 -11.769713 -1.732575 0.000000 0.000000 0.000000 17.787814 -1.550499 27.936347 22.625133 52.898885 137.272726 53.573391 -10.818864 -104.533734 21.600072 14.978978 -5.082071 0.000000 0.000000 0.000000 -9.279260 -2.650056 8.245113 -10.083166 3.475240 0.815169 58.521441 -31.841558 -8.102428 0.000000 0.000000 0.000000 1.585373 -12.850865 7.506768 -6.509748 2.234102 -0.212377 -39.391617 25.273256 -11.475054 0.000000 0.000000 0.000000 
0.611285 0.947992 2.743465 19.164117 -13.874797 -53.706665 16.756990 13.223359 -58.182124 -13.032454 14.936416 77.254009 7.183054 16.293146 31.375940 0.000000 0.000000 0.000000 -21.866705 4.368091 19.344012 11.361674 1.395024 48.295525 -7.026308 -11.631810 -11.604879 0.000000 0.000000 0.000000 23.528598 1.942192 11.736834 13.784671 37.300006 120.674068 35.444188 -23.103274 -90.408017 21.397709 7.398059 8.799703 0.000000 0.000000 0.000000 -11.531572 -3.633821 3.580173 -1.505656 11.353043 1.157905 56.071619 -42.220891 -12.810429 0.000000 0.000000 0.000000 4.086632 -9.952171 2.254761 -16.961049 4.406149 -1.069990 -33.138849 31.066608 -7.716790 0.000000 0.000000 0.000000 
0.610883 0.940399 2.743788 20.615640 -15.585008 -59.030812 18.128084 12.884409 -49.872849 -10.361251 11.581950 65.504949 5.338006 13.858664 35.863779 0.000000 0.000000 0.000000 -22.678026 5.634218 21.848892 13.456170 1.135322 51.165164 -11.140942 -21.709974 -19.783366 0.000000 0.000000 0.000000 26.975937 8.100339 -5.611558 9.908701 24.695358 103.585836 14.104418 -31.379464 -65.736486 19.872165 -3.466375 25.877847 0.000000 0.000000 0.000000 -6.632790 -4.350956 2.314274 0.855061 18.449440 1.976758 63.270071 -54.547969 -24.156846 0.000000 0.000000 0.000000 6.439406 -4.211970 -0.530082 -22.612326 8.492464 -2.005542 -25.641271 35.282569 -4.914228 0.000000 0.000000 0.000000 
0.611905 0.932057 2.742913 22.336557 -16.071055 -63.936582 19.505059 11.875110 -41.544914 -9.606242 10.331915 56.646723 1.567256 11.468329 45.387558 0.000000 0.000000 0.000000 -23.072673 6.119089 22.224546 13.190603 2.283208 55.035869 -11.916040 -23.462260 -28.512869 0.000000 0.000000 0.000000 28.400014 13.076642 -15.479307 -7.330674 27.170359 51.834337 -3.185653 -22.643312 -14.019623 15.867610 -17.112222 42.004851 0.000000 0.000000 0.000000 -13.357940 -8.209728 5.147963 12.016768 26.274671 6.886615 74.808953 -57.117491 -40.097728 0.000000 0.000000 0.000000 13.941681 3.053695 -1.752857 -31.279717 14.192334 -3.997135 -13.991743 38.489681 -2.210274 0.000000 0.000000 0.000000 
0.614096 0.928028 2.739136 24.962520 -17.267629 -68.252267 20.808144 11.167110 -33.858756 -7.048423 10.147339 57.536264 -2.413436 8.879769 47.499681 0.000000 0.000000 0.000000 -22.573471 6.163443 21.260700 11.613634 4.727989 58.565725 -11.772005 -21.079632 -30.723375 0.000000 0.000000 0.000000 32.563115 19.050652 -21.474310 -17.259113 15.226550 14.291960 -14.752631 -4.878744 26.230140 18.493342 -23.070776 13.602626 0.000000 0.000000 0.000000 -2.512238 -5.338531 2.952285 1.266545 25.416560 3.124564 90.776816 -54.571939 -54.179250 0.000000 0.000000 0.000000 3.273746 0.092483 -0.867038 -20.773844 23.398221 -4.971046 -16.703368 37.476326 -5.095926 0.000000 0.000000 0.000000 
0.617833 0.927415 2.729741 26.636556 -17.204477 -70.778578 20.438140 9.258824 -26.901435 -5.402629 11.163695 61.768336 1.965042 10.537111 35.768591 0.000000 0.000000 0.000000 -23.812151 7.082612 22.420653 11.059809 5.413355 59.192573 -11.334853 -17.875189 -30.901655 0.000000 0.000000 0.000000 31.033532 22.755845 -28.864376 -13.181601 7.447552 1.737158 -16.947114 3.849250 35.013188 17.132988 -13.832119 -12.996620 0.000000 0.000000 0.000000 4.903503 -3.411476 1.209201 -7.559995 26.058290 -0.691976 111.747769 -60.479423 -79.270569 0.000000 0.000000 0.000000 -23.923601 -5.981841 -0.539778 6.495216 30.811356 -2.455721 -8.087450 36.302550 -1.955744 0.000000 0.000000 0.000000 
0.623375 0.938738 2.714077 28.920815 -17.796744 -72.312013 20.012150 8.217077 -22.454199 -1.909252 10.933415 66.850191 5.452729 12.188437 19.159207 0.000000 0.000000 0.000000 -23.966842 6.754149 20.219282 9.300962 7.334142 59.435212 -9.972396 -12.683759 -25.298066 0.000000 0.000000 0.000000 33.513150 27.251916 -32.009106 -13.401978 6.167192 -4.549177 -15.772389 7.706212 36.002393 16.418494 -9.418425 -22.665611 0.000000 0.000000 0.000000 17.649160 1.883199 -0.557864 -19.083643 29.231793 -5.874785 157.649855 -57.808877 -136.394539 0.000000 0.000000 0.000000 -41.401391 -8.946615 0.016936 16.130271 21.202427 -0.445467 9.167833 37.521429 3.847655 0.000000 0.000000 0.000000 
0.631521 0.951587 2.691866 30.173465 -16.508890 -73.357818 20.600762 7.576903 -18.363450 -0.586888 11.221820 71.769892 12.328539 18.924694 -59.212686 0.000000 0.000000 0.000000 -25.400956 7.083107 19.876902 8.210395 6.984992 55.590817 -10.426576 -12.738980 -26.313631 0.000000 0.000000 0.000000 30.506420 29.028201 -38.070553 -9.743434 3.930346 -7.691838 -13.544233 9.903473 37.323555 11.926793 -4.023176 -31.485504 0.000000 0.000000 0.000000 25.841176 12.945122 -1.810024 -22.656919 23.903078 -6.506728 169.315592 -39.408798 -143.935561 0.000000 0.000000 0.000000 -53.193125 -13.480504 1.724323 13.967861 12.396049 -0.594678 16.776498 22.355128 3.540770 0.000000 0.000000 0.000000 
